<svg width="578" height="576" xmlns="http://www.w3.org/2000/svg" fill="none">

 <g>
  <title>Layer 1</title>
  <path id="svg_1" fill="color(display-p3 0.4867 0.8917 0.8833)" d="m100.61102,330.981l339.444,0l0,52.656l-339.444,0l0,-52.656z"/>
  <path id="svg_2" fill="color(display-p3 0.2784 0.3804 1.0000)" d="m126.17902,220.725c27.283,18.898 11.732,60.363 30.407,121.199c6.542,21.299 23.65,77.017 65.764,104.347c58.776,38.138 111.329,-14.655 230.383,3.498c49.297,7.519 125.74,29.602 125.443,52.63c-0.55,42.403 -260.958,62.368 -351.918,69.345c-103.896,7.975 -127.3814,2.931 -149.0515,-11.413c-100.3319,-66.438 -98.3876,-290.587 -20.1054,-336.933c19.3849,-11.478 49.9679,-15.914 69.0779,-2.673z"/>
  <path id="svg_3" fill="black" d="m457.10602,97.9779l0.888,0c26.766,0 48.544,-21.7775 48.544,-48.5462l0,-0.8855c0,-26.7688 -21.778,-48.5462 -48.544,-48.5462l-0.888,0c-26.769,0 -48.544,21.7774 -48.544,48.5462l0,0.8855c0,26.7687 21.775,48.5462 48.544,48.5462zm0.888,-95.97588c25.658,0 46.531,20.87548 46.531,46.53318l0,0.8855c0,25.6577 -20.873,46.5331 -46.531,46.5331l-0.888,0c-25.658,0 -46.531,-20.8754 -46.531,-46.5331l0,-0.8855c0,-25.6577 20.873,-46.53318 46.531,-46.53318l0.888,0z"/>
  <path id="svg_4" fill="color(display-p3 0.4867 0.8917 0.8833)" d="m450.77502,78.4445l-29.18,-32.8957l10.728,-8.0054l18.183,20.496l32.065,-37.9889l10.934,7.7689l-42.73,50.6251z"/>
  <path id="svg_5" fill="black" d="m400.39202,454.601c0,0 35.222,29.318 37.783,39.625c2.56,10.307 -73.019,-16.332 -73.019,-16.332l4.323,-24.594l30.913,1.301z"/>
  <path id="svg_6" fill="white" d="m434.92102,493.805c2.005,0 2.632,-0.36 3.025,-0.591c0.117,-0.065 0.22,-0.152 0.302,-0.257c0.083,-0.104 0.144,-0.224 0.18,-0.353c0.035,-0.128 0.045,-0.263 0.029,-0.395c-0.017,-0.132 -0.059,-0.26 -0.126,-0.376c-0.066,-0.115 -0.155,-0.217 -0.26,-0.298c-0.106,-0.081 -0.227,-0.14 -0.356,-0.174c-0.129,-0.034 -0.263,-0.042 -0.396,-0.024c-0.132,0.018 -0.259,0.063 -0.374,0.131c-4.367,2.511 -46.076,-9.392 -71.343,-17.482c-0.256,-0.081 -0.533,-0.058 -0.771,0.065c-0.238,0.123 -0.417,0.336 -0.499,0.591c-0.081,0.255 -0.057,0.532 0.066,0.77c0.123,0.238 0.335,0.418 0.59,0.499c0.165,0.052 16.66,5.324 33.721,10.082c23.095,6.429 32.288,7.812 36.212,7.812z"/>
  <path id="svg_7" fill="white" d="m401.58502,466.759c0.234,0 0.459,-0.082 0.638,-0.231l6.364,-5.225c0.198,-0.172 0.321,-0.415 0.343,-0.676c0.022,-0.262 -0.059,-0.521 -0.226,-0.724c-0.166,-0.202 -0.406,-0.332 -0.666,-0.361c-0.261,-0.028 -0.523,0.046 -0.73,0.207l-6.363,5.225c-0.161,0.132 -0.277,0.31 -0.332,0.51c-0.056,0.201 -0.048,0.413 0.023,0.609c0.07,0.195 0.199,0.364 0.369,0.483c0.17,0.12 0.373,0.183 0.58,0.183z"/>
  <path id="svg_8" fill="white" d="m408.53502,473.189c0.246,0 0.484,-0.09 0.668,-0.253l6.65,-5.885c0.192,-0.179 0.307,-0.426 0.32,-0.689c0.013,-0.262 -0.077,-0.519 -0.251,-0.716c-0.174,-0.197 -0.419,-0.318 -0.681,-0.337c-0.262,-0.019 -0.521,0.065 -0.722,0.235l-6.65,5.885c-0.153,0.135 -0.261,0.314 -0.31,0.512c-0.048,0.198 -0.036,0.406 0.036,0.597c0.072,0.191 0.201,0.356 0.369,0.472c0.168,0.116 0.367,0.178 0.571,0.179z"/>
  <path id="svg_9" fill="color(display-p3 1.0000 0.7137 0.3098)" d="m407.75702,275.792c0,0 -5.5,-2.426 -7.425,-2.896c-18.701,-4.551 -76.569,-8.115 -76.569,-8.115l-0.099,-3.405l-79.822,-2.681l-7.668,14.201c0,0 -8.379,20.075 -2.722,37.656c5.657,17.581 20.075,20.972 29.103,21.42c6.482,0.325 63.881,0.184 95.701,0.08l-6.407,128.673l68.88,0l10.403,-147.225c0.713,-7.969 -1.181,-15.954 -5.397,-22.754c-4.215,-6.8 -10.524,-12.048 -17.978,-14.954z" clip-rule="evenodd" fill-rule="evenodd"/>
  <path id="svg_10" fill="color(display-p3 1.0000 0.7137 0.3098)" d="m280.80702,295.892l-8.195,164.836l68.88,0l16.783,-165.749l-77.468,0.913z" clip-rule="evenodd" fill-rule="evenodd"/>
  <path id="svg_11" fill="color(display-p3 1.0000 0.6824 0.6000)" d="m480.82702,96.3966c-3.055,-2.4172 -7.18,2.442 -7.513,2.8435c0.306,-0.3712 3.68,-4.6255 -0.198,-5.995c-2.076,-0.7343 -4.702,-0.275 -7.667,4.455c-4.095,6.5179 -7.538,12.2489 -7.538,12.2489c0.828,-4.348 2.107,-8.598 3.815,-12.6806c1.589,-3.7703 -0.619,-5.5468 -1.689,-5.7448c-2.651,-0.4895 -4.515,0.1512 -7.854,7.0208c-3.338,6.8696 -4.807,11.0546 -4.807,11.0546c0,0 -17.507,0.647 -23.375,3.07c-2.343,0.968 -3.891,5.296 -4.909,10.142c-1.1,5.208 -5.794,41.437 -8.456,50.661c9.281,3.08 18.623,5.973 28.083,8.461c1.766,0.465 5.921,0.825 5.921,0.825c0,0 1.754,-34.603 2.615,-46.118c0.153,-1.804 0.781,-3.535 1.82,-5.018c1.039,-1.483 2.452,-2.664 4.095,-3.424c7.425,-3.504 19.22,-8.451 20.023,-9.419c2.508,-3.025 6.05,-9.518 8.124,-16.5c1.18,-3.9161 0.561,-5.0546 -0.49,-5.8824z"/>
  <path id="svg_12" fill="black" d="m456.16802,115.383c0.215,-0.001 0.424,-0.069 0.597,-0.196c0.173,-0.127 0.301,-0.306 0.366,-0.511l2.75,-8.885c0.079,-0.255 0.053,-0.532 -0.071,-0.768c-0.125,-0.237 -0.338,-0.414 -0.594,-0.493c-0.255,-0.079 -0.531,-0.054 -0.768,0.071c-0.236,0.124 -0.413,0.338 -0.492,0.593l-2.75,8.883c-0.08,0.255 -0.054,0.53 0.07,0.767c0.124,0.236 0.337,0.413 0.592,0.492c0.097,0.032 0.198,0.048 0.3,0.047z"/>
  <path id="svg_13" fill="black" d="m417.43102,121.689l-12.045,38.384c-4.859,-9.223 -24.712,-36.129 -36.831,-45.507c-15.381,-11.902 -46.61,-13.112 -46.61,-13.112c0,0 -26.92,-0.635 -33.586,-0.11c-11.179,0.885 -52.146,2.805 -67.651,28.683c-11.275,18.802 -31.57,57.698 -23.452,83.152c7.469,23.422 46.522,16.588 46.522,16.588c0,0 -3.965,36.732 -3.69,36.719c0,0 75.389,4.675 74.457,4.419c-0.028,0 -0.072,-0.105 -0.132,-0.275l51.409,-2.112l0.981,-53.532c0.383,26.238 32.176,30.973 42.793,26.238c35.011,-15.601 37.602,-62.618 52.449,-105.282l-44.614,-14.253z" clip-rule="evenodd" fill-rule="evenodd"/>
  <path id="svg_14" fill="white" d="m318.40302,271.68c0.258,0 0.506,-0.099 0.693,-0.276c0.187,-0.178 0.299,-0.42 0.313,-0.678c4.994,-95.01 -3.776,-162.548 -3.864,-163.219c-0.018,-0.131 -0.061,-0.258 -0.128,-0.372c-0.067,-0.114 -0.156,-0.214 -0.261,-0.294c-0.106,-0.08 -0.226,-0.138 -0.354,-0.172c-0.128,-0.033 -0.261,-0.041 -0.392,-0.023c-0.131,0.018 -0.258,0.062 -0.372,0.129c-0.114,0.066 -0.214,0.155 -0.294,0.261c-0.08,0.105 -0.138,0.225 -0.172,0.353c-0.033,0.128 -0.041,0.262 -0.023,0.393c0.088,0.671 8.833,68.038 3.85,162.851c-0.008,0.132 0.011,0.264 0.055,0.388c0.044,0.125 0.112,0.24 0.201,0.338c0.088,0.098 0.195,0.178 0.315,0.234c0.119,0.057 0.248,0.089 0.38,0.096l0.053,-0.009z"/>
  <path id="svg_15" fill="color(display-p3 0.9882 0.9725 0.9686)" d="m329.48602,164.759c0,2.044 1.201,3.699 2.686,3.699c1.485,0 2.687,-1.65 2.687,-3.699c0,-2.048 -1.204,-3.698 -2.687,-3.698c-1.482,0 -2.686,1.655 -2.686,3.698z" clip-rule="evenodd" fill-rule="evenodd"/>
  <path id="svg_16" fill="color(display-p3 0.9882 0.9725 0.9686)" d="m328.69602,253.36c-1.484,0 -2.687,-1.656 -2.687,-3.699c0,-2.043 1.203,-3.699 2.687,-3.699c1.484,0 2.687,1.656 2.687,3.699c0,2.043 -1.203,3.699 -2.687,3.699z"/>
  <path id="svg_17" fill="color(display-p3 0.9882 0.9725 0.9686)" d="m328.69602,204.948c0,2.044 1.205,3.699 2.687,3.699c1.482,0 2.687,-1.65 2.687,-3.699c0,-2.048 -1.205,-3.698 -2.687,-3.698c-1.482,0 -2.687,1.658 -2.687,3.698z" clip-rule="evenodd" fill-rule="evenodd"/>
  <path id="svg_18" fill="white" d="m366.88602,225.912c0.262,0 0.515,-0.103 0.703,-0.286c0.188,-0.184 0.297,-0.433 0.303,-0.696c0,-0.468 1.161,-47.1 -2.148,-78.142c-0.014,-0.131 -0.054,-0.259 -0.117,-0.375c-0.063,-0.116 -0.149,-0.218 -0.252,-0.301c-0.103,-0.083 -0.221,-0.145 -0.348,-0.183c-0.127,-0.037 -0.26,-0.049 -0.391,-0.035c-0.131,0.014 -0.259,0.054 -0.375,0.117c-0.116,0.064 -0.218,0.149 -0.301,0.252c-0.083,0.103 -0.145,0.221 -0.183,0.348c-0.037,0.127 -0.049,0.26 -0.035,0.391c3.3,30.908 2.151,77.411 2.137,77.876c-0.003,0.132 0.02,0.263 0.067,0.387c0.048,0.123 0.119,0.236 0.21,0.332c0.091,0.095 0.201,0.172 0.321,0.226c0.121,0.053 0.252,0.083 0.384,0.086l0.025,0.003z"/>
  <path id="svg_19" fill="white" d="m396.11902,184.417c0.201,0 0.398,-0.061 0.565,-0.174c0.166,-0.114 0.295,-0.274 0.37,-0.462l9.267,-23.336c0.099,-0.249 0.094,-0.526 -0.012,-0.771c-0.106,-0.245 -0.305,-0.438 -0.553,-0.537c-0.248,-0.098 -0.526,-0.094 -0.771,0.012c-0.245,0.106 -0.438,0.305 -0.537,0.553l-9.259,23.334c-0.1,0.247 -0.098,0.523 0.005,0.768c0.103,0.245 0.299,0.44 0.545,0.541c0.121,0.048 0.25,0.072 0.38,0.072z"/>
  <path id="svg_20" fill="white" d="m391.45202,167.08c0.169,0.001 0.336,-0.041 0.484,-0.123l9.303,-5.099c0.116,-0.063 0.218,-0.149 0.301,-0.252c0.083,-0.103 0.144,-0.222 0.181,-0.349c0.037,-0.127 0.049,-0.26 0.035,-0.391c-0.015,-0.131 -0.055,-0.259 -0.118,-0.375c-0.064,-0.116 -0.15,-0.218 -0.253,-0.301c-0.103,-0.082 -0.221,-0.144 -0.348,-0.181c-0.127,-0.037 -0.26,-0.049 -0.391,-0.034c-0.132,0.014 -0.259,0.054 -0.375,0.118l-9.301,5.098c-0.196,0.108 -0.35,0.277 -0.439,0.482c-0.089,0.205 -0.108,0.434 -0.052,0.651c0.055,0.216 0.181,0.408 0.358,0.545c0.177,0.137 0.394,0.212 0.617,0.211l-0.002,0z"/>
  <path id="svg_21" fill="color(display-p3 1.0000 0.6824 0.6000)" d="m283.81302,201.021l1.826,-21.073c2.31,-7.046 7.659,-13.871 10.937,-16c7.001,-4.554 30.39,-2.909 30.558,0.825c0.168,3.735 -21.744,7.323 -21.744,7.323c0,0 18.326,7.151 18.463,10.671c0.138,3.52 -6.083,3.671 -6.083,3.671c0,0 2.893,4.202 0.897,6.996c-1.997,2.794 -3.523,2.714 -3.523,2.714c0,0 4.32,3.891 -0.762,4.906c-5.082,1.015 -15.59,-2.538 -15.59,-2.538c0,0 -5.841,14.658 -16.943,14.658l1.964,-12.153z" clip-rule="evenodd" fill-rule="evenodd"/>
  <path id="svg_22" fill="white" d="m251.47802,182.819c0.235,-0.001 0.461,-0.085 0.641,-0.235c0.18,-0.151 0.301,-0.359 0.344,-0.59l6.817,-34.334c0.038,-0.256 -0.024,-0.517 -0.174,-0.729c-0.149,-0.211 -0.374,-0.358 -0.628,-0.408c-0.254,-0.051 -0.517,-0.002 -0.736,0.137c-0.219,0.138 -0.376,0.355 -0.439,0.607l-6.815,34.334c-0.052,0.262 0.003,0.534 0.151,0.756c0.149,0.222 0.379,0.376 0.641,0.429c0.065,0.016 0.131,0.027 0.198,0.033z"/>
  <path id="svg_23" fill="white" d="m243.77002,230.774l0.047,0l35.915,-1.65c0.238,-0.011 0.464,-0.105 0.639,-0.267c0.174,-0.162 0.286,-0.38 0.315,-0.616l5.954,-48.18c0.018,-0.15 0.003,-0.301 -0.045,-0.444c-0.047,-0.143 -0.126,-0.273 -0.23,-0.381c-0.102,-0.108 -0.226,-0.192 -0.364,-0.245c-0.138,-0.054 -0.286,-0.077 -0.434,-0.066l-50.96,3.459c-0.267,0.018 -0.515,0.141 -0.691,0.342c-0.176,0.202 -0.265,0.464 -0.247,0.731c0.018,0.266 0.141,0.515 0.342,0.691c0.201,0.176 0.464,0.264 0.731,0.247l49.75,-3.347l-5.701,46.129l-35.065,1.6c-0.258,0.018 -0.499,0.135 -0.674,0.326c-0.174,0.191 -0.268,0.442 -0.263,0.7c0.006,0.259 0.111,0.505 0.294,0.689c0.182,0.183 0.428,0.289 0.687,0.296l0,-0.014z"/>
  <path id="svg_24" fill="black" d="m354.61202,333.072c0.255,-0.001 0.5,-0.098 0.686,-0.272c0.187,-0.174 0.3,-0.412 0.318,-0.666l1.312,-18.562c1.493,-16.693 -8.382,-32.624 -24.016,-38.718l-0.069,-0.025l-17.999,-5.563c-0.255,-0.079 -0.531,-0.053 -0.767,0.072c-0.236,0.125 -0.413,0.338 -0.492,0.593c-0.079,0.256 -0.053,0.532 0.072,0.768c0.125,0.236 0.338,0.413 0.593,0.492l17.963,5.558c7.227,2.855 13.34,7.965 17.43,14.571c4.091,6.607 5.942,14.356 5.277,22.098l-1.311,18.582c-0.019,0.266 0.069,0.528 0.244,0.729c0.175,0.202 0.422,0.326 0.688,0.346l0.071,-0.003z"/>
  <path id="svg_25" fill="black" d="m358.24502,333.058c0.199,0 0.393,-0.059 0.559,-0.17c0.165,-0.111 0.294,-0.268 0.371,-0.451l9.924,-23.788c0.103,-0.247 0.103,-0.524 0.001,-0.77c-0.101,-0.247 -0.297,-0.443 -0.544,-0.546c-0.246,-0.102 -0.523,-0.103 -0.77,-0.001c-0.247,0.102 -0.443,0.298 -0.546,0.544l-9.924,23.799c-0.064,0.153 -0.089,0.319 -0.073,0.484c0.015,0.165 0.072,0.324 0.164,0.462c0.092,0.138 0.217,0.251 0.363,0.329c0.146,0.078 0.309,0.119 0.475,0.119l0,-0.011z"/>
  <path id="svg_26" fill="black" d="m278.36502,333.058c0.267,0 0.523,-0.106 0.712,-0.295c0.189,-0.188 0.295,-0.444 0.295,-0.711l0,-23.186c0,-0.267 -0.106,-0.523 -0.295,-0.711c-0.189,-0.189 -0.445,-0.295 -0.712,-0.295c-0.267,0 -0.523,0.106 -0.712,0.295c-0.188,0.188 -0.294,0.444 -0.294,0.711l0,23.186c0,0.267 0.106,0.523 0.294,0.711c0.189,0.189 0.445,0.295 0.712,0.295z"/>
  <path id="svg_27" fill="black" d="m310.29602,23.5018c-0.77,2.0366 -1.307,4.1538 -1.601,6.3113c0,0 1.947,-3.5667 1.601,-6.3113z"/>
  <path id="svg_28" fill="color(display-p3 1.0000 0.6824 0.6000)" d="m323.37202,42.2458c-0.825,-1.6858 -1.584,-3.1213 -2.186,-4.2158c-0.379,-0.6941 -0.971,-1.2486 -1.688,-1.5821c-0.717,-0.3336 -1.522,-0.4287 -2.297,-0.2714c-6.243,1.276 -20.328,5.6733 -23.837,8.272c-3.924,2.9068 -0.209,15.7054 4.075,23.422c0.417,0.7514 0.745,1.5488 0.977,2.376l-4.153,4.6503l-7.54,21.3457l27.835,11.4045l3.27,-2.822l4.4,-20.3994c15.452,-7.8788 6.732,-30.7837 1.144,-42.1798z"/>
  <path id="svg_29" fill="black" d="m319.05402,51.0514c0.139,0.0004 0.277,-0.0279 0.404,-0.0833c0.127,-0.0554 0.242,-0.1366 0.336,-0.2385c0.028,-0.0302 1.711,-1.7847 3.592,-1.1302c0.125,0.0469 0.259,0.0683 0.393,0.0628c0.134,-0.0054 0.265,-0.0375 0.387,-0.0945c0.121,-0.0569 0.23,-0.1375 0.32,-0.2371c0.089,-0.0995 0.158,-0.216 0.202,-0.3426c0.045,-0.1265 0.063,-0.2607 0.055,-0.3944c-0.009,-0.1338 -0.044,-0.2646 -0.103,-0.3847c-0.06,-0.12 -0.143,-0.227 -0.245,-0.3145c-0.101,-0.0876 -0.219,-0.154 -0.346,-0.1953c-3.144,-1.1 -5.633,1.5538 -5.734,1.6665c-0.09,0.0972 -0.16,0.2111 -0.205,0.3353c-0.046,0.1241 -0.066,0.2561 -0.061,0.3882c0.006,0.1321 0.038,0.2618 0.094,0.3816c0.056,0.1199 0.135,0.2275 0.232,0.3167c0.185,0.1711 0.428,0.2656 0.679,0.264z"/>
  <path id="svg_30" fill="black" d="m305.81302,57.4454c0.231,-0.0005 0.454,-0.08 0.633,-0.225c0.179,-0.1451 0.303,-0.3472 0.352,-0.5725c0.077,-0.341 0.858,-3.3001 4.95,-2.6428c0.13,0.0208 0.264,0.0156 0.392,-0.0152c0.129,-0.0307 0.25,-0.0865 0.357,-0.1642c0.107,-0.0776 0.198,-0.1755 0.267,-0.2882c0.069,-0.1127 0.115,-0.2379 0.136,-0.3684c0.021,-0.1306 0.016,-0.2639 -0.015,-0.3925c-0.031,-0.1285 -0.087,-0.2498 -0.164,-0.3568c-0.078,-0.107 -0.176,-0.1976 -0.289,-0.2668c-0.112,-0.0691 -0.237,-0.1154 -0.368,-0.1362c-4.873,-0.77 -6.858,2.42 -7.23,4.2158c-0.053,0.2618 -0.001,0.5342 0.146,0.7574c0.147,0.2233 0.376,0.3791 0.638,0.4334c0.064,0.0136 0.13,0.0209 0.195,0.022z"/>
  <path id="svg_31" fill="black" d="m309.38802,59.6618c-0.192,-0.5087 -0.418,-1.0147 -0.55,-1.5427c-0.206,-0.418 0.091,-0.9735 0.517,-1.1495c0.067,-0.0235 0.136,-0.0383 0.207,-0.044c0.132,-0.0539 0.278,-0.0608 0.415,-0.0198c0.136,0.041 0.255,0.1276 0.335,0.2453c0,0.0165 0.02,0.0385 0.031,0.0577c0.061,0.066 0.115,0.1389 0.159,0.2173c0.239,0.4921 0.453,0.996 0.641,1.5097c0.223,0.55 0.443,0.9653 0.201,1.562c-0.087,0.1877 -0.24,0.3361 -0.431,0.4161c-0.19,0.0799 -0.403,0.0855 -0.598,0.0157c-0.599,-0.2558 -0.726,-0.715 -0.927,-1.2678z"/>
  <path id="svg_32" fill="black" d="m322.90202,54.8629c-0.21,-0.5046 -0.393,-1.0195 -0.55,-1.5428c-0.207,-0.418 0.093,-0.9735 0.517,-1.1495c0.066,-0.0234 0.136,-0.0382 0.206,-0.044c0.132,-0.0546 0.278,-0.0623 0.415,-0.0217c0.137,0.0406 0.255,0.1269 0.336,0.2445l0.03,0.0605c0.063,0.0646 0.117,0.1377 0.16,0.2172c0.24,0.4914 0.454,0.9954 0.64,1.5098c0.226,0.55 0.446,0.9653 0.201,1.562c-0.087,0.1872 -0.24,0.335 -0.431,0.4144c-0.19,0.0794 -0.403,0.0846 -0.597,0.0146c-0.592,-0.253 -0.718,-0.7122 -0.927,-1.265z"/>
  <path id="svg_33" fill="black" d="m318.38902,73.4173c1.859,0 3.421,-1.3228 4.125,-2.2715c0.154,-0.2134 0.218,-0.4785 0.178,-0.7384c-0.039,-0.26 -0.179,-0.4942 -0.388,-0.6526c-0.21,-0.1585 -0.474,-0.2285 -0.734,-0.1952c-0.261,0.0333 -0.499,0.1673 -0.662,0.3734c-0.181,0.2365 -1.815,2.2633 -3.671,1.1165c-1.227,-0.7562 -0.883,-2.5327 -0.869,-2.607c0.047,-0.2581 -0.008,-0.5244 -0.154,-0.7424c-0.146,-0.2179 -0.372,-0.3701 -0.628,-0.4243c-0.257,-0.0541 -0.525,-0.0059 -0.747,0.1345c-0.221,0.1404 -0.379,0.3617 -0.44,0.617c-0.028,0.132 -0.66,3.2285 1.779,4.7355c0.66,0.4239 1.427,0.6509 2.211,0.6545z"/>
  <path id="svg_34" fill="black" d="m325.47902,67.6697c0.2,0 0.395,-0.0596 0.561,-0.1713c0.167,-0.1117 0.296,-0.2703 0.371,-0.4557c0.179,-0.4345 1.686,-4.3313 -0.052,-6.6605c-0.886,-1.1853 -2.365,-1.375 -3.798,-1.5813c-1.623,-0.2227 -3.157,-0.4318 -4.177,-1.8398c-1.804,-2.475 0.55,-5.775 0.574,-5.819c0.158,-0.2155 0.224,-0.485 0.183,-0.749c-0.04,-0.2641 -0.184,-0.5011 -0.4,-0.659c-0.215,-0.1579 -0.485,-0.2237 -0.749,-0.183c-0.264,0.0407 -0.501,0.1847 -0.659,0.4002c-0.132,0.1843 -3.248,4.5073 -0.58,8.1923c1.526,2.1038 3.748,2.4091 5.538,2.6511c1.1,0.1512 2.074,0.275 2.453,0.792c0.903,1.2045 0.141,3.85 -0.197,4.6998c-0.06,0.1522 -0.082,0.3168 -0.064,0.4795c0.018,0.1626 0.075,0.3184 0.167,0.4538c0.092,0.1355 0.215,0.2465 0.36,0.3234c0.144,0.077 0.305,0.1176 0.469,0.1183l0,0.0082z"/>
  <path id="svg_35" fill="color(display-p3 0.9167 0.5042 0.3972)" d="m312.34202,84.0545c-0.271,-0.0541 -0.552,-0.0335 -0.812,0.0598c-0.26,0.0933 -0.49,0.2557 -0.664,0.4698c-0.175,0.214 -0.288,0.4716 -0.328,0.7451c-0.039,0.2734 -0.003,0.5525 0.104,0.8071l8.413,12.9251l3.366,-14.8859l-10.079,-0.121z"/>
  <path id="svg_36" fill="color(display-p3 0.1020 0.1020 0.1020)" d="m330.92602,22.7069c-0.863,-8.5251 -12.801,-10.1751 -17.099,-5.3186c-1.626,1.8343 -3.43,5.0573 -3.531,6.1133c-0.196,-1.5427 -1.1,-2.8242 -3.507,-3.069c-6.66,-0.6765 -7.796,8.5993 -7.796,8.5993c0,0 -17.3,-1.8837 -25.457,15.1692c-6.385,13.3513 1.375,25.4762 17.229,40.5601c0,0 6.262,-3.5751 8.008,-10.4281c0.514,-2.0185 -0.132,-4.2983 -1.334,-6.4626c-1.613,-2.9627 -2.942,-6.0712 -3.971,-9.284c2.541,-1.0231 4.4,-4.1883 4.4,-7.9394c0,-3.025 -1.201,-5.654 -2.994,-7.1033c4.98,-2.6153 16.775,-6.2288 22.335,-7.3673c0.775,-0.1573 1.58,-0.0622 2.298,0.2714c0.717,0.3335 1.308,0.888 1.687,1.5821c0.602,1.1 1.361,2.53 2.186,4.2158c2.013,-2.8573 8.283,-12.3696 7.546,-19.5389z"/>
  <path id="svg_37" fill="color(display-p3 1.0000 0.6824 0.6000)" d="m300.84702,72.793c-1.733,2.2 -5.5,2.3678 -8.407,0.3823c-2.907,-1.9855 -3.869,-5.3791 -2.137,-7.5763c1.733,-2.1973 5.5,-2.3706 8.407,-0.385c2.907,1.9855 3.869,5.379 2.137,7.579z"/>
  <path id="svg_38" fill="black" d="m299.96402,71.6299c0.12,0.0004 0.239,-0.021 0.352,-0.0633c0.25,-0.0939 0.452,-0.2828 0.563,-0.5256c0.111,-0.2427 0.121,-0.5194 0.028,-0.7696c-1.741,-4.6751 -6.754,-4.9501 -9.157,-4.4496c-0.13,0.0271 -0.253,0.0794 -0.362,0.154c-0.109,0.0746 -0.203,0.1699 -0.275,0.2806c-0.073,0.1107 -0.122,0.2346 -0.147,0.3646c-0.024,0.13 -0.023,0.2635 0.004,0.393c0.027,0.1294 0.079,0.2523 0.154,0.3616c0.074,0.1092 0.17,0.2027 0.281,0.2751c0.11,0.0724 0.234,0.1223 0.364,0.1468c0.13,0.0245 0.264,0.0232 0.393,-0.0039c0.231,-0.0467 5.291,-1.0258 6.859,3.1818c0.072,0.192 0.201,0.3575 0.369,0.4744c0.169,0.117 0.369,0.1798 0.574,0.1801z"/>
  <path id="svg_39" fill="black" d="m330.92402,103.362l-9.285,-15.7352l-7.801,17.1572l-23.618,-18.4827l-13.307,16.1177l24.816,25.705l12.818,-20.485l14.405,18.901l1.972,-23.178z" clip-rule="evenodd" fill-rule="evenodd"/>
  <path id="svg_40" fill="black" d="m301.72902,129.13c0.043,0.003 0.085,0.003 0.127,0c0.148,-0.018 0.291,-0.069 0.417,-0.149c0.126,-0.081 0.233,-0.189 0.312,-0.316l12.045,-19.25l13.522,17.732c0.123,0.162 0.292,0.283 0.485,0.347c0.193,0.064 0.401,0.068 0.596,0.011c0.195,-0.056 0.369,-0.171 0.498,-0.328c0.129,-0.157 0.207,-0.35 0.225,-0.552l1.971,-22.55c0.015,-0.134 0.003,-0.269 -0.035,-0.397c-0.038,-0.129 -0.101,-0.248 -0.186,-0.352c-0.085,-0.104 -0.19,-0.19 -0.309,-0.252c-0.118,-0.063 -0.248,-0.101 -0.382,-0.113c-0.133,-0.012 -0.268,0.003 -0.396,0.044c-0.128,0.041 -0.246,0.107 -0.348,0.195c-0.101,0.087 -0.185,0.194 -0.244,0.314c-0.06,0.12 -0.096,0.251 -0.104,0.385l-1.747,19.959l-12.828,-16.832c-0.099,-0.13 -0.227,-0.233 -0.375,-0.302c-0.147,-0.068 -0.308,-0.1 -0.471,-0.093c-0.162,0.008 -0.32,0.055 -0.46,0.137c-0.14,0.082 -0.258,0.197 -0.344,0.335l-12.164,19.437l-22.473,-21.47c-0.094,-0.098 -0.207,-0.175 -0.332,-0.228c-0.125,-0.053 -0.26,-0.081 -0.395,-0.08c-0.136,0 -0.27,0.028 -0.395,0.081c-0.125,0.054 -0.237,0.132 -0.331,0.23c-0.094,0.098 -0.167,0.215 -0.215,0.342c-0.047,0.127 -0.069,0.262 -0.063,0.398c0.006,0.135 0.04,0.269 0.098,0.391c0.059,0.122 0.142,0.232 0.244,0.321l23.375,22.325c0.184,0.176 0.428,0.276 0.682,0.28z"/>
  <path id="svg_41" fill="black" d="m308.01302,172.998c0.238,0.001 0.468,-0.083 0.65,-0.235c0.182,-0.153 0.304,-0.365 0.344,-0.6c0.041,-0.234 -0.003,-0.474 -0.123,-0.68c-0.12,-0.205 -0.309,-0.361 -0.533,-0.44l-6.787,-2.417c-0.251,-0.09 -0.528,-0.076 -0.77,0.039c-0.241,0.114 -0.427,0.32 -0.517,0.571c-0.089,0.252 -0.075,0.529 0.039,0.77c0.115,0.242 0.32,0.428 0.572,0.517l6.787,2.418c0.109,0.037 0.223,0.057 0.338,0.057z"/>
  <path id="svg_42" fill="black" d="m319.68202,188.289c0.229,-0.002 0.452,-0.082 0.63,-0.228c0.178,-0.145 0.3,-0.347 0.347,-0.572c0.048,-0.225 0.017,-0.459 -0.088,-0.664c-0.104,-0.205 -0.275,-0.367 -0.485,-0.461l-18.257,-8.014c-0.245,-0.107 -0.522,-0.113 -0.771,-0.015c-0.249,0.097 -0.449,0.289 -0.556,0.533c-0.108,0.245 -0.113,0.522 -0.016,0.771c0.097,0.249 0.289,0.449 0.534,0.556l18.268,8.003c0.124,0.056 0.258,0.087 0.394,0.091z"/>
  <path id="svg_43" fill="black" d="m316.29402,197.699c0.232,0.004 0.458,-0.072 0.64,-0.215c0.182,-0.144 0.309,-0.346 0.36,-0.572c0.05,-0.227 0.021,-0.463 -0.083,-0.671c-0.104,-0.207 -0.277,-0.372 -0.488,-0.467l-16.393,-7.664c-0.12,-0.059 -0.251,-0.093 -0.384,-0.101c-0.134,-0.007 -0.267,0.012 -0.393,0.056c-0.126,0.045 -0.242,0.114 -0.341,0.204c-0.099,0.089 -0.179,0.198 -0.236,0.319c-0.056,0.121 -0.088,0.252 -0.094,0.386c-0.005,0.133 0.016,0.266 0.063,0.392c0.046,0.125 0.117,0.239 0.209,0.337c0.091,0.097 0.201,0.176 0.323,0.23l16.39,7.664c0.133,0.066 0.279,0.101 0.427,0.102z"/>
  <path id="svg_44" fill="black" d="m464.97902,118.581c0.194,0 0.384,-0.055 0.547,-0.161c0.164,-0.105 0.292,-0.256 0.372,-0.433c0.607,-1.347 9.685,-19.8386 9.776,-20.0228c0.118,-0.2396 0.136,-0.5162 0.05,-0.7689c-0.087,-0.2527 -0.27,-0.4609 -0.509,-0.5787c-0.24,-0.1177 -0.516,-0.1355 -0.769,-0.0494c-0.253,0.0861 -0.461,0.2691 -0.579,0.5087c-0.374,0.7617 -9.185,18.7001 -9.804,20.0751c-0.069,0.153 -0.099,0.321 -0.087,0.489c0.013,0.167 0.067,0.329 0.158,0.471c0.091,0.141 0.216,0.257 0.364,0.337c0.148,0.081 0.313,0.122 0.481,0.122l0,0.011z"/>
  <path id="svg_45" fill="black" d="m472.97902,121.119c0.19,0.001 0.377,-0.053 0.538,-0.155c0.161,-0.102 0.29,-0.247 0.372,-0.419l9.103,-19.196c0.114,-0.241 0.128,-0.518 0.038,-0.77c-0.089,-0.251 -0.275,-0.457 -0.517,-0.572c-0.241,-0.1141 -0.518,-0.1281 -0.77,-0.0383c-0.252,0.0893 -0.457,0.2753 -0.572,0.5173l-9.1,19.195c-0.057,0.12 -0.089,0.249 -0.096,0.381c-0.007,0.132 0.013,0.265 0.057,0.389c0.045,0.125 0.113,0.24 0.202,0.338c0.089,0.098 0.196,0.177 0.316,0.234c0.134,0.064 0.28,0.097 0.429,0.096z"/>
  <path id="svg_46" fill="white" d="m301.72902,129.13l0.108,0c0.152,-0.016 0.298,-0.066 0.428,-0.147c0.129,-0.081 0.239,-0.191 0.32,-0.32l12.045,-19.25l13.522,17.734c0.123,0.162 0.292,0.283 0.485,0.347c0.193,0.064 0.401,0.068 0.596,0.011c0.195,-0.057 0.369,-0.171 0.498,-0.328c0.129,-0.157 0.207,-0.35 0.225,-0.552l2.065,-24.286c0.016,-0.133 0.004,-0.269 -0.034,-0.399c-0.037,-0.129 -0.101,-0.25 -0.186,-0.354c-0.085,-0.105 -0.191,-0.191 -0.31,-0.254c-0.119,-0.063 -0.25,-0.101 -0.384,-0.112c-0.135,-0.012 -0.27,0.004 -0.398,0.046c-0.128,0.042 -0.247,0.109 -0.349,0.197c-0.101,0.089 -0.184,0.197 -0.243,0.318c-0.059,0.121 -0.094,0.253 -0.101,0.388l-1.845,21.678l-12.823,-16.827c-0.099,-0.129 -0.227,-0.233 -0.374,-0.301c-0.148,-0.069 -0.309,-0.101 -0.472,-0.093c-0.162,0.007 -0.32,0.054 -0.46,0.136c-0.14,0.082 -0.258,0.197 -0.344,0.335l-12.136,19.393l-23.925,-24.778c-0.186,-0.189 -0.44,-0.298 -0.705,-0.302c-0.266,-0.004 -0.522,0.097 -0.713,0.282c-0.192,0.184 -0.302,0.437 -0.308,0.702c-0.006,0.266 0.093,0.523 0.276,0.715l24.816,25.705c0.094,0.099 0.206,0.178 0.331,0.232c0.125,0.055 0.259,0.083 0.395,0.084z"/>
 </g>
</svg>